<svg width="43" height="34" viewBox="0 0 43 34" fill="none" xmlns="http://www.w3.org/2000/svg">
<path d="M13.1079 10.8826H-0.18439C-0.592759 10.8826 -0.922852 11.1993 -0.922852 11.5911V15.8421C-0.922852 16.2339 -0.592759 16.5506 -0.18439 16.5506H0.554072V32.8461C0.554072 33.2379 0.884164 33.5546 1.29253 33.5546H11.631C12.0394 33.5546 12.3695 33.2379 12.3695 32.8461V30.0121V19.3846V16.5506H13.1079C13.5163 16.5506 13.8464 16.2339 13.8464 15.8421V11.5911C13.8464 11.1993 13.5163 10.8826 13.1079 10.8826ZM4.98484 24.3441V22.9271H9.41561V21.5101H4.98484V20.0931H10.8925V29.3036H4.98484V25.7611H6.46176V24.3441H4.98484ZM10.8925 18.6761H4.24638C3.83801 18.6761 3.50792 18.9928 3.50792 19.3846V30.0121C3.50792 30.4039 3.83801 30.7206 4.24638 30.7206H10.8925V32.1376H2.03099V16.5506H10.8925V18.6761ZM12.3695 15.1336H11.631H1.29253H0.554072V12.2996H12.3695V15.1336Z" fill="#2B7FFF"/>
<path d="M22.8926 11.0154V5.83559C22.8926 5.43221 22.5625 5.10614 22.1541 5.10614H21.4157V1.4589H22.8926V0H14.7695V1.4589H19.9388V5.10614H19.2003C18.7919 5.10614 18.4618 5.43221 18.4618 5.83559V11.0154C16.7789 11.3546 15.508 12.8274 15.508 14.589V16.0479V29.9074V32.8252C15.508 33.2286 15.8381 33.5547 16.2465 33.5547H25.108C25.5164 33.5547 25.8465 33.2286 25.8465 32.8252V29.9074V16.0479V14.589C25.8465 12.8281 24.5756 11.3546 22.8926 11.0154ZM19.9388 6.56504H21.4157V10.9417H19.9388V6.56504ZM19.2003 12.4006H22.1541C23.3756 12.4006 24.3695 13.3825 24.3695 14.589V15.3184H16.9849V14.589C16.9849 13.3825 17.9789 12.4006 19.2003 12.4006ZM24.3695 29.178H16.9849V27.7191H19.9388V26.2602H16.9849V16.7773H24.3695V29.178ZM16.9849 32.0958V30.6369H24.3695V32.0958H16.9849Z" fill="#2B7FFF"/>
<path d="M41.7696 9.97583H29.308C28.9252 9.97583 28.6157 10.2952 28.6157 10.6903V32.8403C28.6157 33.2354 28.9252 33.5548 29.308 33.5548H41.7696C42.1524 33.5548 42.4619 33.2354 42.4619 32.8403V10.6903C42.4619 10.2952 42.1524 9.97583 41.7696 9.97583ZM41.0773 32.1258H30.0003V11.4049H41.0773V32.1258Z" fill="#2B7FFF"/>
<path d="M10.1543 24.4858H8.30811V25.3927H10.1543V24.4858Z" fill="#2B7FFF"/>
<path d="M23.0771 26.2996H21.231V28.1133H23.0771V26.2996Z" fill="#2B7FFF"/>
<path d="M20.7693 24.4859C22.5511 24.4859 24.0001 23.0623 24.0001 21.3118C24.0001 19.5613 22.5511 18.1377 20.7693 18.1377C18.9876 18.1377 17.5386 19.5613 17.5386 21.3118C17.5386 23.0623 18.9876 24.4859 20.7693 24.4859ZM20.7693 19.7247C21.6602 19.7247 22.3847 20.4365 22.3847 21.3118C22.3847 22.187 21.6602 22.8988 20.7693 22.8988C19.8785 22.8988 19.154 22.187 19.154 21.3118C19.154 20.4365 19.8785 19.7247 20.7693 19.7247Z" fill="#2B7FFF"/>
<path d="M33.8078 17.2307H37.2694C38.6055 17.2307 39.6925 16.2137 39.6925 14.9635C39.6925 13.7133 38.6055 12.6963 37.2694 12.6963H33.8078C32.4717 12.6963 31.3848 13.7133 31.3848 14.9635C31.3848 16.2137 32.4717 17.2307 33.8078 17.2307ZM38.3078 14.9635C38.3078 15.4992 37.8419 15.9352 37.2694 15.9352H36.2309V13.9918H37.2694C37.8419 13.9918 38.3078 14.4278 38.3078 14.9635ZM33.8078 13.9918H34.8463V15.9352H33.8078C33.2353 15.9352 32.7694 15.4992 32.7694 14.9635C32.7694 14.4278 33.2353 13.9918 33.8078 13.9918Z" fill="#2B7FFF"/>
<path d="M33.8078 24.4857H37.2694C38.6055 24.4857 39.6925 23.2653 39.6925 21.7651C39.6925 20.2648 38.6055 19.0444 37.2694 19.0444H33.8078C32.4717 19.0444 31.3848 20.2648 31.3848 21.7651C31.3848 23.2653 32.4717 24.4857 33.8078 24.4857ZM38.3078 21.7651C38.3078 22.4079 37.8419 22.9311 37.2694 22.9311H36.2309V20.5991H37.2694C37.8419 20.5991 38.3078 21.1222 38.3078 21.7651ZM33.8078 20.5991H34.8463V22.9311H33.8078C33.2353 22.9311 32.7694 22.4079 32.7694 21.7651C32.7694 21.1222 33.2353 20.5991 33.8078 20.5991Z" fill="#2B7FFF"/>
<path d="M33.8078 30.8341H37.2694C38.6055 30.8341 39.6925 29.6137 39.6925 28.1135C39.6925 26.6132 38.6055 25.3928 37.2694 25.3928H33.8078C32.4717 25.3928 31.3848 26.6132 31.3848 28.1135C31.3848 29.6137 32.4717 30.8341 33.8078 30.8341ZM38.3078 28.1135C38.3078 28.7563 37.8419 29.2795 37.2694 29.2795H36.2309V26.9475H37.2694C37.8419 26.9475 38.3078 27.4706 38.3078 28.1135ZM33.8078 26.9475H34.8463V29.2795H33.8078C33.2353 29.2795 32.7694 28.7563 32.7694 28.1135C32.7694 27.4706 33.2353 26.9475 33.8078 26.9475Z" fill="#2B7FFF"/>
</svg>
